<svg xmlns="http://www.w3.org/2000/svg" xmlns:xlink="http://www.w3.org/1999/xlink" width="38" height="38" viewBox="0 0 38 38">
  <defs>
    <style>
      .cls-1 {
        fill: #fff;
        stroke: #c9d6e3;
      }

      .cls-2 {
        fill: #c9d6e3;
      }

      .cls-3 {
        stroke: none;
      }

      .cls-4 {
        fill: none;
      }

      .cls-5 {
        filter: url(#椭圆_1);
      }
    </style>
    <filter id="椭圆_1" x="0" y="0" width="38" height="38" filterUnits="userSpaceOnUse">
      <feOffset dy="3" input="SourceAlpha"/>
      <feGaussianBlur stdDeviation="3" result="blur"/>
      <feFlood flood-color="#0d86ff" flood-opacity="0.102"/>
      <feComposite operator="in" in2="blur"/>
      <feComposite in="SourceGraphic"/>
    </filter>
  </defs>
  <g id="组_8283" data-name="组 8283" transform="translate(-311 -262)">
    <g class="cls-5" transform="matrix(1, 0, 0, 1, 311, 262)">
      <g id="椭圆_1-2" data-name="椭圆 1" class="cls-1" transform="translate(9 6)">
        <circle class="cls-3" cx="10" cy="10" r="10"/>
        <circle class="cls-4" cx="10" cy="10" r="9.5"/>
      </g>
    </g>
    <path id="路径_7701" data-name="路径 7701" class="cls-2" d="M75.234,70.682H70.682v4.552a.719.719,0,1,1-1.437,0V70.682H64.693a.719.719,0,1,1,0-1.437h4.552V64.693a.719.719,0,1,1,1.437,0v4.552h4.552a.719.719,0,1,1,0,1.437Z" transform="translate(330 179.057) rotate(45)"/>
  </g>
</svg>
